# xmcd
#
# Track frame offsets: 
#        150
#        31397
#        44008
#        63242
#        81671
#        107220
#        123056
#        148703
#        162896
#        189198
#        213305
#        238555
#        265317
#        286918
#
# Disc length: 4148 seconds
#
# Revision: 2
# Processed by: cddbd v1.5.2PL0 Copyright (c) Steve Scherf et al.
# Submitted via: ExactAudioCopyFreeDBPlugin 1.0
#
DISCID=c910320e
DTITLE=Vince Guaraldi - The Definitive Vince Guaraldi [Disc 1]
DYEAR=2009
DGENRE=Blues
TTITLE0=Calling Dr. Funk
TTITLE1=Fascinating Rythym
TTITLE2=Never Never Land
TTITLE3=Fenwyck's Farfel
TTITLE4=A Flower Is A Lovesome Thing
TTITLE5=Softly, As In A Morning Sunrise
TTITLE6=Samba de Orfeu (aka Samba de Orpheus)
TTITLE7=Cast Your Fate To The Wind
TTITLE8=Manhã de Carnaval
TTITLE9=Moon River
TTITLE10=Jitterbug Waltz
TTITLE11=On Green Dolphin Street
TTITLE12=Star Song
TTITLE13=The Days Of Wine And Roses
EXTD=YEAR: 2009
EXTT0=
EXTT1=
EXTT2=
EXTT3=
EXTT4=
EXTT5=
EXTT6=
EXTT7=
EXTT8=
EXTT9=
EXTT10=
EXTT11=
EXTT12=
EXTT13=
PLAYORDER=
